<svg width="1920" height="76" viewBox="0 0 1920 76" fill="none" xmlns="http://www.w3.org/2000/svg">
<path d="M1696.29 41.0785C1703.66 41.0785 1709.63 47.0277 1709.63 54.3664C1709.63 61.7051 1703.66 67.6543 1696.29 67.6543C1688.93 67.6543 1682.95 61.7051 1682.95 54.3664C1682.95 47.0277 1688.93 41.0785 1696.29 41.0785Z" fill="#E5E5E5"/>
<path d="M1696.29 4.71134C1703.66 4.71134 1709.63 10.6605 1709.63 17.9992C1709.63 25.3379 1703.66 31.2871 1696.29 31.2871C1688.93 31.2871 1682.95 25.3379 1682.95 17.9992C1682.95 10.6605 1688.93 4.71134 1696.29 4.71134Z" fill="#E5E5E5"/>
<path d="M1732.8 41.0785C1740.16 41.0785 1746.14 47.0392 1746.14 54.3664C1746.14 61.6936 1740.16 67.6543 1732.8 67.6543C1725.45 67.6543 1719.46 61.6936 1719.46 54.3664C1719.46 47.0392 1725.45 41.0785 1732.8 41.0785Z" fill="#E5E5E5"/>
<path d="M1870.15 41.0785C1877.52 41.0785 1883.49 47.0277 1883.49 54.3664C1883.49 61.7051 1877.52 67.6543 1870.15 67.6543C1862.79 67.6543 1856.81 61.7051 1856.81 54.3664C1856.81 47.0277 1862.79 41.0785 1870.15 41.0785Z" fill="#E5E5E5"/>
<path d="M1906.67 41.0785C1914.04 41.0785 1920.01 47.0277 1920.01 54.3664C1920.01 61.7051 1914.04 67.6543 1906.67 67.6543C1899.3 67.6543 1893.33 61.7051 1893.33 54.3664C1893.33 47.0277 1899.3 41.0785 1906.67 41.0785Z" fill="#E5E5E5"/>
<path d="M1906.67 4.71134C1914.04 4.71134 1920.01 10.6605 1920.01 17.9992C1920.01 25.3379 1914.04 31.2871 1906.67 31.2871C1899.3 31.2871 1893.33 25.3379 1893.33 17.9992C1893.33 10.6605 1899.3 4.71134 1906.67 4.71134Z" fill="#E5E5E5"/>
<path d="M1801.48 13.5987C1818.71 30.76 1818.71 58.5838 1801.48 75.7451C1784.26 58.5838 1784.26 30.76 1801.48 13.5987Z" fill="#E5E5E5"/>
<path d="M1801.48 13.5988C1818.71 -3.56252 1846.65 -3.56252 1863.88 13.5988C1846.65 30.76 1818.71 30.76 1801.48 13.5988Z" fill="#E5E5E5"/>
<path d="M1801.49 13.5988C1784.26 30.76 1756.32 30.76 1739.09 13.5988C1756.32 -3.56252 1784.26 -3.56252 1801.49 13.5988Z" fill="#E5E5E5"/>
<path d="M1485.92 41.0785C1493.29 41.0785 1499.26 47.0277 1499.26 54.3664C1499.26 61.7051 1493.29 67.6543 1485.92 67.6543C1478.55 67.6543 1472.58 61.7051 1472.58 54.3664C1472.58 47.0277 1478.55 41.0785 1485.92 41.0785Z" fill="#E5E5E5"/>
<path d="M1485.92 4.71134C1493.29 4.71134 1499.26 10.6605 1499.26 17.9992C1499.26 25.3379 1493.29 31.2871 1485.92 31.2871C1478.55 31.2871 1472.58 25.3379 1472.58 17.9992C1472.58 10.6605 1478.55 4.71134 1485.92 4.71134Z" fill="#E5E5E5"/>
<path d="M1522.43 41.0785C1529.78 41.0785 1535.77 47.0392 1535.77 54.3664C1535.77 61.6936 1529.78 67.6543 1522.43 67.6543C1515.07 67.6543 1509.09 61.6936 1509.09 54.3664C1509.09 47.0392 1515.07 41.0785 1522.43 41.0785Z" fill="#E5E5E5"/>
<path d="M1659.78 41.0785C1667.15 41.0785 1673.12 47.0277 1673.12 54.3664C1673.12 61.7051 1667.15 67.6543 1659.78 67.6543C1652.41 67.6543 1646.44 61.7051 1646.44 54.3664C1646.44 47.0277 1652.41 41.0785 1659.78 41.0785Z" fill="#E5E5E5"/>
<path d="M1696.29 41.0785C1703.66 41.0785 1709.63 47.0277 1709.63 54.3664C1709.63 61.7051 1703.66 67.6543 1696.29 67.6543C1688.93 67.6543 1682.95 61.7051 1682.95 54.3664C1682.95 47.0277 1688.93 41.0785 1696.29 41.0785Z" fill="#E5E5E5"/>
<path d="M1696.29 4.71134C1703.66 4.71134 1709.63 10.6605 1709.63 17.9992C1709.63 25.3379 1703.66 31.2871 1696.29 31.2871C1688.93 31.2871 1682.95 25.3379 1682.95 17.9992C1682.95 10.6605 1688.93 4.71134 1696.29 4.71134Z" fill="#E5E5E5"/>
<path d="M1591.11 13.5987C1608.34 30.76 1608.34 58.5838 1591.11 75.7451C1573.88 58.5838 1573.88 30.76 1591.11 13.5987Z" fill="#E5E5E5"/>
<path d="M1591.11 13.5988C1608.34 -3.56252 1636.27 -3.56252 1653.5 13.5988C1636.27 30.76 1608.34 30.76 1591.11 13.5988Z" fill="#E5E5E5"/>
<path d="M1591.11 13.5988C1573.88 30.76 1545.95 30.76 1528.72 13.5988C1545.95 -3.56252 1573.88 -3.56252 1591.11 13.5988Z" fill="#E5E5E5"/>
<path d="M1275.55 41.0785C1282.92 41.0785 1288.89 47.0277 1288.89 54.3664C1288.89 61.7051 1282.92 67.6543 1275.55 67.6543C1268.18 67.6543 1262.21 61.7051 1262.21 54.3664C1262.21 47.0277 1268.18 41.0785 1275.55 41.0785Z" fill="#E5E5E5"/>
<path d="M1275.55 4.71134C1282.92 4.71134 1288.89 10.6605 1288.89 17.9992C1288.89 25.3379 1282.92 31.2871 1275.55 31.2871C1268.18 31.2871 1262.21 25.3379 1262.21 17.9992C1262.21 10.6605 1268.18 4.71134 1275.55 4.71134Z" fill="#E5E5E5"/>
<path d="M1312.06 41.0785C1319.42 41.0785 1325.4 47.0392 1325.4 54.3664C1325.4 61.6936 1319.42 67.6543 1312.06 67.6543C1304.7 67.6543 1298.72 61.6936 1298.72 54.3664C1298.72 47.0392 1304.7 41.0785 1312.06 41.0785Z" fill="#E5E5E5"/>
<path d="M1449.41 41.0785C1456.78 41.0785 1462.75 47.0277 1462.75 54.3664C1462.75 61.7051 1456.78 67.6543 1449.41 67.6543C1442.04 67.6543 1436.07 61.7051 1436.07 54.3664C1436.07 47.0277 1442.04 41.0785 1449.41 41.0785Z" fill="#E5E5E5"/>
<path d="M1485.93 41.0785C1493.29 41.0785 1499.27 47.0277 1499.27 54.3664C1499.27 61.7051 1493.29 67.6543 1485.93 67.6543C1478.56 67.6543 1472.59 61.7051 1472.59 54.3664C1472.59 47.0277 1478.56 41.0785 1485.93 41.0785Z" fill="#E5E5E5"/>
<path d="M1485.93 4.71134C1493.29 4.71134 1499.27 10.6605 1499.27 17.9992C1499.27 25.3379 1493.29 31.2871 1485.93 31.2871C1478.56 31.2871 1472.59 25.3379 1472.59 17.9992C1472.59 10.6605 1478.56 4.71134 1485.93 4.71134Z" fill="#E5E5E5"/>
<path d="M1380.74 13.5987C1397.97 30.76 1397.97 58.5838 1380.74 75.7451C1363.51 58.5838 1363.51 30.76 1380.74 13.5987Z" fill="#E5E5E5"/>
<path d="M1380.74 13.5988C1397.97 -3.56252 1425.9 -3.56252 1443.13 13.5988C1425.9 30.76 1397.97 30.76 1380.74 13.5988Z" fill="#E5E5E5"/>
<path d="M1380.74 13.5988C1363.51 30.76 1335.58 30.76 1318.35 13.5988C1335.58 -3.56252 1363.51 -3.56252 1380.74 13.5988Z" fill="#E5E5E5"/>
<path d="M1065.18 41.0785C1072.55 41.0785 1078.52 47.0277 1078.52 54.3664C1078.52 61.7051 1072.55 67.6543 1065.18 67.6543C1057.82 67.6543 1051.84 61.7051 1051.84 54.3664C1051.84 47.0277 1057.82 41.0785 1065.18 41.0785Z" fill="#E5E5E5"/>
<path d="M1065.18 4.71134C1072.55 4.71134 1078.52 10.6605 1078.52 17.9992C1078.52 25.3379 1072.55 31.2871 1065.18 31.2871C1057.82 31.2871 1051.84 25.3379 1051.84 17.9992C1051.84 10.6605 1057.82 4.71134 1065.18 4.71134Z" fill="#E5E5E5"/>
<path d="M1101.69 41.0785C1109.05 41.0785 1115.03 47.0392 1115.03 54.3664C1115.03 61.6936 1109.05 67.6543 1101.69 67.6543C1094.34 67.6543 1088.35 61.6936 1088.35 54.3664C1088.35 47.0392 1094.34 41.0785 1101.69 41.0785Z" fill="#E5E5E5"/>
<path d="M1239.04 41.0785C1246.41 41.0785 1252.38 47.0277 1252.38 54.3664C1252.38 61.7051 1246.41 67.6543 1239.04 67.6543C1231.68 67.6543 1225.7 61.7051 1225.7 54.3664C1225.7 47.0277 1231.68 41.0785 1239.04 41.0785Z" fill="#E5E5E5"/>
<path d="M1275.56 41.0785C1282.93 41.0785 1288.9 47.0277 1288.9 54.3664C1288.9 61.7051 1282.93 67.6543 1275.56 67.6543C1268.19 67.6543 1262.22 61.7051 1262.22 54.3664C1262.22 47.0277 1268.19 41.0785 1275.56 41.0785Z" fill="#E5E5E5"/>
<path d="M1275.56 4.71134C1282.93 4.71134 1288.9 10.6605 1288.9 17.9992C1288.9 25.3379 1282.93 31.2871 1275.56 31.2871C1268.19 31.2871 1262.22 25.3379 1262.22 17.9992C1262.22 10.6605 1268.19 4.71134 1275.56 4.71134Z" fill="#E5E5E5"/>
<path d="M1170.37 13.5987C1187.6 30.76 1187.6 58.5838 1170.37 75.7451C1153.15 58.5838 1153.15 30.76 1170.37 13.5987Z" fill="#E5E5E5"/>
<path d="M1170.38 13.5988C1187.6 -3.56252 1215.54 -3.56252 1232.77 13.5988C1215.54 30.76 1187.6 30.76 1170.38 13.5988Z" fill="#E5E5E5"/>
<path d="M1170.38 13.5988C1153.15 30.76 1125.21 30.76 1107.98 13.5988C1125.21 -3.56252 1153.15 -3.56252 1170.38 13.5988Z" fill="#E5E5E5"/>
<path d="M854.817 41.0785C862.185 41.0785 868.157 47.0277 868.157 54.3664C868.157 61.7051 862.185 67.6543 854.817 67.6543C847.449 67.6543 841.477 61.7051 841.477 54.3664C841.477 47.0277 847.449 41.0785 854.817 41.0785Z" fill="#E5E5E5"/>
<path d="M854.817 4.71134C862.185 4.71134 868.157 10.6605 868.157 17.9992C868.157 25.3379 862.185 31.2871 854.817 31.2871C847.449 31.2871 841.477 25.3379 841.477 17.9992C841.477 10.6605 847.449 4.71134 854.817 4.71134Z" fill="#E5E5E5"/>
<path d="M891.325 41.0785C898.681 41.0785 904.665 47.0392 904.665 54.3664C904.665 61.6936 898.681 67.6543 891.325 67.6543C883.969 67.6543 877.984 61.6936 877.984 54.3664C877.984 47.0392 883.969 41.0785 891.325 41.0785Z" fill="#E5E5E5"/>
<path d="M1028.68 41.0785C1036.04 41.0785 1042.02 47.0277 1042.02 54.3664C1042.02 61.7051 1036.04 67.6543 1028.68 67.6543C1021.31 67.6543 1015.34 61.7051 1015.34 54.3664C1015.34 47.0277 1021.31 41.0785 1028.68 41.0785Z" fill="#E5E5E5"/>
<path d="M1065.19 41.0785C1072.56 41.0785 1078.53 47.0277 1078.53 54.3664C1078.53 61.7051 1072.56 67.6543 1065.19 67.6543C1057.82 67.6543 1051.85 61.7051 1051.85 54.3664C1051.85 47.0277 1057.82 41.0785 1065.19 41.0785Z" fill="#E5E5E5"/>
<path d="M1065.19 4.71134C1072.56 4.71134 1078.53 10.6605 1078.53 17.9992C1078.53 25.3379 1072.56 31.2871 1065.19 31.2871C1057.82 31.2871 1051.85 25.3379 1051.85 17.9992C1051.85 10.6605 1057.82 4.71134 1065.19 4.71134Z" fill="#E5E5E5"/>
<path d="M960.008 13.5987C977.237 30.76 977.237 58.5838 960.008 75.7451C942.779 58.5838 942.779 30.76 960.008 13.5987Z" fill="#E5E5E5"/>
<path d="M960.008 13.5988C977.237 -3.56252 1005.17 -3.56252 1022.4 13.5988C1005.17 30.76 977.237 30.76 960.008 13.5988Z" fill="#E5E5E5"/>
<path d="M960.009 13.5988C942.78 30.76 914.846 30.76 897.617 13.5988C914.846 -3.56252 942.78 -3.56252 960.009 13.5988Z" fill="#E5E5E5"/>
<path d="M644.45 41.0785C651.817 41.0785 657.79 47.0277 657.79 54.3664C657.79 61.7051 651.817 67.6543 644.45 67.6543C637.082 67.6543 631.109 61.7051 631.109 54.3664C631.109 47.0277 637.082 41.0785 644.45 41.0785Z" fill="#E5E5E5"/>
<path d="M644.45 4.71134C651.817 4.71134 657.79 10.6605 657.79 17.9992C657.79 25.3379 651.817 31.2871 644.45 31.2871C637.082 31.2871 631.109 25.3379 631.109 17.9992C631.109 10.6605 637.082 4.71134 644.45 4.71134Z" fill="#E5E5E5"/>
<path d="M680.958 41.0785C688.314 41.0785 694.298 47.0392 694.298 54.3664C694.298 61.6936 688.314 67.6543 680.958 67.6543C673.601 67.6543 667.617 61.6936 667.617 54.3664C667.617 47.0392 673.601 41.0785 680.958 41.0785Z" fill="#E5E5E5"/>
<path d="M818.309 41.0785C825.677 41.0785 831.649 47.0277 831.649 54.3664C831.649 61.7051 825.677 67.6543 818.309 67.6543C810.941 67.6543 804.969 61.7051 804.969 54.3664C804.969 47.0277 810.941 41.0785 818.309 41.0785Z" fill="#E5E5E5"/>
<path d="M854.825 41.0785C862.192 41.0785 868.165 47.0277 868.165 54.3664C868.165 61.7051 862.192 67.6543 854.825 67.6543C847.457 67.6543 841.484 61.7051 841.484 54.3664C841.484 47.0277 847.457 41.0785 854.825 41.0785Z" fill="#E5E5E5"/>
<path d="M854.825 4.71134C862.192 4.71134 868.165 10.6605 868.165 17.9992C868.165 25.3379 862.192 31.2871 854.825 31.2871C847.457 31.2871 841.484 25.3379 841.484 17.9992C841.484 10.6605 847.457 4.71134 854.825 4.71134Z" fill="#E5E5E5"/>
<path d="M749.641 13.5987C766.87 30.76 766.87 58.5838 749.641 75.7451C732.411 58.5838 732.411 30.76 749.641 13.5987Z" fill="#E5E5E5"/>
<path d="M749.641 13.5988C766.87 -3.56252 794.803 -3.56252 812.032 13.5988C794.803 30.76 766.87 30.76 749.641 13.5988Z" fill="#E5E5E5"/>
<path d="M749.642 13.5988C732.413 30.76 704.479 30.76 687.25 13.5988C704.479 -3.56252 732.413 -3.56252 749.642 13.5988Z" fill="#E5E5E5"/>
<path d="M434.075 41.0785C441.442 41.0785 447.415 47.0277 447.415 54.3664C447.415 61.7051 441.442 67.6543 434.075 67.6543C426.707 67.6543 420.734 61.7051 420.734 54.3664C420.734 47.0277 426.707 41.0785 434.075 41.0785Z" fill="#E5E5E5"/>
<path d="M434.075 4.71134C441.442 4.71134 447.415 10.6605 447.415 17.9992C447.415 25.3379 441.442 31.2871 434.075 31.2871C426.707 31.2871 420.734 25.3379 420.734 17.9992C420.734 10.6605 426.707 4.71134 434.075 4.71134Z" fill="#E5E5E5"/>
<path d="M470.583 41.0785C477.939 41.0785 483.923 47.0392 483.923 54.3664C483.923 61.6936 477.939 67.6543 470.583 67.6543C463.226 67.6543 457.242 61.6936 457.242 54.3664C457.242 47.0392 463.226 41.0785 470.583 41.0785Z" fill="#E5E5E5"/>
<path d="M607.934 41.0785C615.302 41.0785 621.274 47.0277 621.274 54.3664C621.274 61.7051 615.302 67.6543 607.934 67.6543C600.566 67.6543 594.594 61.7051 594.594 54.3664C594.594 47.0277 600.566 41.0785 607.934 41.0785Z" fill="#E5E5E5"/>
<path d="M644.45 41.0785C651.817 41.0785 657.79 47.0277 657.79 54.3664C657.79 61.7051 651.817 67.6543 644.45 67.6543C637.082 67.6543 631.109 61.7051 631.109 54.3664C631.109 47.0277 637.082 41.0785 644.45 41.0785Z" fill="#E5E5E5"/>
<path d="M644.45 4.71134C651.817 4.71134 657.79 10.6605 657.79 17.9992C657.79 25.3379 651.817 31.2871 644.45 31.2871C637.082 31.2871 631.109 25.3379 631.109 17.9992C631.109 10.6605 637.082 4.71134 644.45 4.71134Z" fill="#E5E5E5"/>
<path d="M539.266 13.5987C556.495 30.76 556.495 58.5838 539.266 75.7451C522.036 58.5838 522.036 30.76 539.266 13.5987Z" fill="#E5E5E5"/>
<path d="M539.266 13.5988C556.495 -3.56252 584.428 -3.56252 601.657 13.5988C584.428 30.76 556.495 30.76 539.266 13.5988Z" fill="#E5E5E5"/>
<path d="M539.267 13.5988C522.038 30.76 494.104 30.76 476.875 13.5988C494.104 -3.56252 522.038 -3.56252 539.267 13.5988Z" fill="#E5E5E5"/>
<path d="M223.708 41.0785C231.075 41.0785 237.048 47.0277 237.048 54.3664C237.048 61.7051 231.075 67.6543 223.708 67.6543C216.34 67.6543 210.367 61.7051 210.367 54.3664C210.367 47.0277 216.34 41.0785 223.708 41.0785Z" fill="#E5E5E5"/>
<path d="M223.708 4.71134C231.075 4.71134 237.048 10.6605 237.048 17.9992C237.048 25.3379 231.075 31.2871 223.708 31.2871C216.34 31.2871 210.367 25.3379 210.367 17.9992C210.367 10.6605 216.34 4.71134 223.708 4.71134Z" fill="#E5E5E5"/>
<path d="M260.215 41.0785C267.571 41.0785 273.556 47.0392 273.556 54.3664C273.556 61.6936 267.571 67.6543 260.215 67.6543C252.859 67.6543 246.875 61.6936 246.875 54.3664C246.875 47.0392 252.859 41.0785 260.215 41.0785Z" fill="#E5E5E5"/>
<path d="M397.567 41.0785C404.935 41.0785 410.907 47.0277 410.907 54.3664C410.907 61.7051 404.935 67.6543 397.567 67.6543C390.199 67.6543 384.227 61.7051 384.227 54.3664C384.227 47.0277 390.199 41.0785 397.567 41.0785Z" fill="#E5E5E5"/>
<path d="M434.083 41.0785C441.45 41.0785 447.423 47.0277 447.423 54.3664C447.423 61.7051 441.45 67.6543 434.083 67.6543C426.715 67.6543 420.742 61.7051 420.742 54.3664C420.742 47.0277 426.715 41.0785 434.083 41.0785Z" fill="#E5E5E5"/>
<path d="M434.083 4.71134C441.45 4.71134 447.423 10.6605 447.423 17.9992C447.423 25.3379 441.45 31.2871 434.083 31.2871C426.715 31.2871 420.742 25.3379 420.742 17.9992C420.742 10.6605 426.715 4.71134 434.083 4.71134Z" fill="#E5E5E5"/>
<path d="M328.898 13.5987C346.127 30.76 346.127 58.5838 328.898 75.7451C311.669 58.5838 311.669 30.76 328.898 13.5987Z" fill="#E5E5E5"/>
<path d="M328.898 13.5988C346.127 -3.56252 374.061 -3.56252 391.29 13.5988C374.061 30.76 346.127 30.76 328.898 13.5988Z" fill="#E5E5E5"/>
<path d="M328.9 13.5988C311.671 30.76 283.737 30.76 266.508 13.5988C283.737 -3.56252 311.671 -3.56252 328.9 13.5988Z" fill="#E5E5E5"/>
<path d="M13.3404 41.0785C20.708 41.0785 26.6807 47.0277 26.6807 54.3664C26.6807 61.7051 20.708 67.6543 13.3404 67.6543C5.97269 67.6543 0 61.7051 0 54.3664C0 47.0277 5.97269 41.0785 13.3404 41.0785Z" fill="#E5E5E5"/>
<path d="M13.3404 4.71134C20.708 4.71134 26.6807 10.6605 26.6807 17.9992C26.6807 25.3379 20.708 31.2871 13.3404 31.2871C5.97269 31.2871 0 25.3379 0 17.9992C0 10.6605 5.97269 4.71134 13.3404 4.71134Z" fill="#E5E5E5"/>
<path d="M49.8482 41.0785C57.2043 41.0785 63.1885 47.0392 63.1885 54.3664C63.1885 61.6936 57.2043 67.6543 49.8482 67.6543C42.4921 67.6543 36.5078 61.6936 36.5078 54.3664C36.5078 47.0392 42.4921 41.0785 49.8482 41.0785Z" fill="#E5E5E5"/>
<path d="M187.2 41.0785C194.567 41.0785 200.54 47.0277 200.54 54.3664C200.54 61.7051 194.567 67.6543 187.2 67.6543C179.832 67.6543 173.859 61.7051 173.859 54.3664C173.859 47.0277 179.832 41.0785 187.2 41.0785Z" fill="#E5E5E5"/>
<path d="M223.715 41.0785C231.083 41.0785 237.056 47.0277 237.056 54.3664C237.056 61.7051 231.083 67.6543 223.715 67.6543C216.348 67.6543 210.375 61.7051 210.375 54.3664C210.375 47.0277 216.348 41.0785 223.715 41.0785Z" fill="#E5E5E5"/>
<path d="M223.715 4.71134C231.083 4.71134 237.056 10.6605 237.056 17.9992C237.056 25.3379 231.083 31.2871 223.715 31.2871C216.348 31.2871 210.375 25.3379 210.375 17.9992C210.375 10.6605 216.348 4.71134 223.715 4.71134Z" fill="#E5E5E5"/>
<path d="M118.531 13.5987C135.76 30.76 135.76 58.5838 118.531 75.7451C101.302 58.5838 101.302 30.76 118.531 13.5987Z" fill="#E5E5E5"/>
<path d="M118.531 13.5988C135.76 -3.56252 163.694 -3.56252 180.923 13.5988C163.694 30.76 135.76 30.76 118.531 13.5988Z" fill="#E5E5E5"/>
<path d="M118.532 13.5988C101.303 30.76 73.3697 30.76 56.1406 13.5988C73.3697 -3.56252 101.303 -3.56252 118.532 13.5988Z" fill="#E5E5E5"/>
</svg>
